<svg xmlns="http://www.w3.org/2000/svg" viewBox="0 0 771 771"><defs><style>.cls-1,.cls-3{fill:#232933;}.cls-1,.cls-2{stroke:#ff3665;stroke-miterlimit:10;}.cls-1{stroke-width:15px;}.cls-2{fill:none;stroke-width:40px;}</style></defs><g id="Layer_2" data-name="Layer 2"><g id="Alerts"><rect class="cls-1" x="7.5" y="7.5" width="756" height="756" rx="80.76"/><path class="cls-2" d="M443.86,626c0,33.56-29,60.77-64.86,60.77S314.13,659.57,314.13,626"/><path class="cls-2" d="M323.08,144a60.77,60.77,0,0,1,121.53,0"/><path class="cls-2" d="M544,629.39H223.72c-47.2,0-76.71-51.1-53.1-92l43.45-75.25,341.72,3.76,41.28,71.49C620.67,578.29,591.16,629.39,544,629.39Z"/><path class="cls-2" d="M383.84,129.5c-93.76,0-169.77,80.29-169.77,179.34V462.16H553.62V308.84C553.62,209.79,477.61,129.5,383.84,129.5Z"/><polygon class="cls-3" points="547.94 499.99 223.06 490.62 238.33 425.42 528.68 424.2 547.94 499.99"/></g></g></svg>