<svg xmlns="http://www.w3.org/2000/svg" viewBox="0 0 771 771"><defs><style>.cls-1,.cls-2,.cls-4{fill:#232933;}.cls-1,.cls-2,.cls-3{stroke:#ff3665;stroke-miterlimit:10;}.cls-1{stroke-width:15px;}.cls-2,.cls-3{stroke-width:40px;}.cls-3{fill:none;}</style></defs><g id="Layer_2" data-name="Layer 2"><g id="Export"><rect class="cls-1" x="7.5" y="7.5" width="756" height="756" rx="80.76"/><rect class="cls-2" x="81.7" y="223.35" width="441.35" height="441.35" rx="80.76"/><path class="cls-3" d="M79.82,525.58l390.51-330A33.77,33.77,0,0,1,518,199.19l59.4,69a33.78,33.78,0,0,1-3.56,47.63l-409,348.41"/><path class="cls-2" d="M653.25,106.87l-284,53.79A31.94,31.94,0,0,0,351,212.88L539.56,432c16,18.63,46.24,12.91,54.36-10.3l95.43-272.84A32,32,0,0,0,653.25,106.87Z"/><polygon class="cls-4" points="396.3 440.35 319.9 348.94 463.29 227.71 540.37 319.94 396.3 440.35"/></g></g></svg>