<svg xmlns="http://www.w3.org/2000/svg" viewBox="0 0 771 771"><defs><style>.cls-1,.cls-2{fill:#232933;}.cls-1,.cls-2,.cls-3{stroke:#ff3665;stroke-miterlimit:10;}.cls-1{stroke-width:15px;}.cls-2,.cls-3{stroke-width:40px;}.cls-3{fill:#ff3665;}</style></defs><g id="Layer_2" data-name="Layer 2"><g id="Image"><rect class="cls-1" x="7.5" y="7.5" width="756" height="756" rx="80.76"/><rect class="cls-2" x="86.91" y="86.91" width="597.18" height="597.18" rx="80.76"/><path class="cls-2" d="M285.76,306.14,102.24,624a17.7,17.7,0,0,0,15.33,26.55h367A17.7,17.7,0,0,0,499.94,624L316.42,306.14A17.7,17.7,0,0,0,285.76,306.14Z"/><path class="cls-2" d="M538,448.65,436.73,624a17.7,17.7,0,0,0,15.34,26.55H654.55A17.7,17.7,0,0,0,669.88,624L568.64,448.65A17.7,17.7,0,0,0,538,448.65Z"/><circle class="cls-3" cx="514.8" cy="234.77" r="54.52"/></g></g></svg>