<svg xmlns="http://www.w3.org/2000/svg" viewBox="0 0 771 771"><defs><style>.cls-1,.cls-2{fill:#232933;stroke:#ff3665;stroke-miterlimit:10;}.cls-1{stroke-width:15px;}.cls-2{stroke-width:40px;}.cls-3{fill:#ff3665;}</style></defs><g id="Layer_2" data-name="Layer 2"><g id="Natural_language_processing" data-name="Natural language processing"><rect class="cls-1" x="7.5" y="7.5" width="756" height="756" rx="80.76"/><rect class="cls-2" x="195.3" y="194.49" width="396.72" height="396.72" rx="33.6"/><rect class="cls-3" x="357.9" y="88.63" width="71.52" height="120.61" rx="23.98"/><rect class="cls-3" x="235.76" y="88.63" width="71.52" height="120.61" rx="23.98"/><rect class="cls-3" x="488.18" y="88.63" width="71.52" height="120.61" rx="23.98"/><rect class="cls-3" x="353.84" y="573.94" width="71.52" height="120.61" rx="23.98"/><rect class="cls-3" x="231.69" y="573.94" width="71.52" height="120.61" rx="23.98"/><rect class="cls-3" x="484.11" y="573.94" width="71.52" height="120.61" rx="23.98"/><rect class="cls-3" x="603.01" y="328.48" width="71.52" height="120.61" rx="23.98" transform="translate(1027.56 -249.99) rotate(90)"/><rect class="cls-3" x="603.01" y="206.33" width="71.52" height="120.61" rx="23.98" transform="translate(905.41 -372.14) rotate(90)"/><rect class="cls-3" x="603.01" y="458.75" width="71.52" height="120.61" rx="23.98" transform="translate(1157.83 -119.72) rotate(90)"/><rect class="cls-3" x="113.41" y="324.42" width="71.52" height="120.61" rx="23.98" transform="translate(533.89 235.55) rotate(90)"/><rect class="cls-3" x="113.41" y="202.27" width="71.52" height="120.61" rx="23.98" transform="translate(411.75 113.4) rotate(90)"/><rect class="cls-3" x="113.41" y="454.69" width="71.52" height="120.61" rx="23.98" transform="translate(664.17 365.82) rotate(90)"/></g></g></svg>