<svg xmlns="http://www.w3.org/2000/svg" viewBox="0 0 771 771"><defs><style>.cls-1,.cls-2{fill:#232933;}.cls-1,.cls-2,.cls-3{stroke:#ff3665;stroke-miterlimit:10;}.cls-1{stroke-width:15px;}.cls-2,.cls-3{stroke-width:40px;}.cls-3,.cls-4{fill:#ff3665;}</style></defs><g id="Layer_2" data-name="Layer 2"><g id="Onotolgies"><rect class="cls-1" x="7.5" y="7.5" width="756" height="756" rx="80.76"/><path class="cls-2" d="M442.93,359.33l-301.56,1.54a35.73,35.73,0,0,1-36.1-35.73V160.59a35.74,35.74,0,0,1,35.59-35.74l296.78-.34a35.72,35.72,0,0,1,25.1,10.16l85.53,83.49a35.72,35.72,0,0,1,.17,51L467.69,349A35.7,35.7,0,0,1,442.93,359.33Z"/><circle class="cls-3" cx="588.51" cy="478.62" r="34.18"/><circle class="cls-3" cx="588.51" cy="620.35" r="34.18"/><rect class="cls-4" x="127.14" y="470.63" width="283.46" height="40.64" transform="translate(759.81 222.08) rotate(90)"/><rect class="cls-4" x="259.64" y="466.3" width="294.69" height="24.65"/><rect class="cls-4" x="248.55" y="608.03" width="294.69" height="24.65"/></g></g></svg>